<?xml version="1.0" standalone="no"?>
<!DOCTYPE svg PUBLIC "-//W3C//DTD SVG 20010904//EN"
 "http://www.w3.org/TR/2001/REC-SVG-20010904/DTD/svg10.dtd">
<svg version="1.0" xmlns="http://www.w3.org/2000/svg"
 width="906.000000pt" height="906.000000pt" viewBox="0 0 906.000000 906.000000"
 preserveAspectRatio="xMidYMid meet">
<metadata>
Created by potrace 1.14, written by Peter Selinger 2001-2017
</metadata>
<g transform="translate(0.000000,906.000000) scale(0.100000,-0.100000)"
fill="#000000" stroke="none">
<path d="M4145 7375 c-259 -29 -312 -36 -375 -49 -36 -8 -90 -20 -120 -26 -93
-20 -271 -71 -352 -101 -42 -16 -80 -29 -83 -29 -4 0 -73 -32 -153 -72 -146
-71 -334 -188 -402 -248 l-35 -32 48 34 c97 67 278 162 327 172 14 3 52 15 85
27 33 12 96 24 140 28 81 6 2367 9 2550 3 98 -4 199 -22 240 -45 11 -6 31 -13
45 -15 46 -6 227 -100 327 -170 l48 -34 -35 32 c-104 93 -416 268 -595 335
-96 35 -300 96 -356 105 -25 5 -63 13 -85 19 -96 26 -148 33 -459 66 -173 18
-591 18 -760 0z"/>
<path d="M2479 6682 c-135 -143 -159 -173 -231 -280 -76 -114 -183 -315 -213
-397 -9 -27 -23 -64 -31 -80 -18 -44 -62 -180 -80 -250 -8 -33 -19 -69 -23
-80 -5 -11 -16 -56 -24 -100 -8 -44 -20 -100 -26 -123 -7 -24 -16 -85 -21
-135 -5 -51 -17 -153 -26 -227 -22 -190 -22 -770 0 -960 9 -74 21 -176 26
-227 5 -50 14 -111 21 -135 6 -23 18 -79 26 -123 8 -44 19 -89 23 -100 5 -11
16 -49 25 -85 21 -80 62 -205 80 -245 7 -16 21 -52 31 -80 51 -140 227 -440
325 -552 76 -86 272 -274 336 -322 259 -194 607 -347 958 -421 323 -68 501
-85 875 -85 374 0 552 17 875 85 351 74 699 227 958 421 64 48 260 236 336
322 98 112 274 412 325 552 10 28 24 64 31 80 18 40 59 165 80 245 9 36 20 74
25 85 4 11 15 56 23 100 8 44 20 100 26 123 7 24 16 85 21 135 5 51 17 153 26
227 22 190 22 770 0 960 -9 74 -21 176 -26 227 -5 50 -14 111 -21 135 -6 23
-18 79 -26 123 -8 44 -19 89 -24 100 -4 11 -15 47 -23 80 -18 70 -62 206 -80
250 -8 16 -22 53 -31 80 -49 134 -230 443 -322 546 -40 45 -199 208 -196 201
1 -2 31 -36 67 -76 74 -81 108 -126 133 -176 10 -19 20 -37 23 -40 13 -13 40
-61 43 -77 2 -10 15 -41 30 -70 15 -28 29 -70 32 -93 3 -23 9 -49 14 -58 32
-64 33 -108 32 -1560 l-2 -1443 -24 -77 c-14 -42 -25 -85 -25 -96 0 -17 -21
-67 -74 -176 -27 -56 -73 -132 -83 -139 -6 -3 -17 -19 -26 -36 -28 -55 -267
-285 -288 -278 -3 1 -19 -10 -35 -23 -16 -14 -50 -35 -76 -46 -27 -11 -48 -25
-48 -30 0 -5 -4 -6 -10 -3 -5 3 -10 1 -10 -5 0 -6 -3 -9 -8 -6 -4 2 -40 -11
-80 -30 -41 -18 -90 -36 -110 -38 -20 -3 -77 -14 -127 -25 -88 -20 -121 -21
-1325 -21 -1203 0 -1237 1 -1325 21 -49 11 -105 22 -123 25 -19 2 -65 18 -102
34 -38 17 -75 30 -84 30 -9 0 -16 5 -16 11 0 5 -4 7 -10 4 -5 -3 -10 -2 -10 3
0 5 -21 19 -48 30 -26 11 -60 32 -76 46 -17 14 -33 23 -37 20 -4 -2 -11 2 -16
9 -4 7 -36 34 -69 60 -59 44 -168 159 -209 221 -44 64 -86 134 -106 176 -58
123 -69 150 -69 167 0 10 -11 53 -25 95 l-24 77 -2 1443 c-1 1437 1 1501 32
1560 6 10 12 37 15 60 3 22 17 64 31 92 15 28 28 59 30 69 3 16 30 64 43 77 3
3 13 21 23 40 26 52 69 109 129 171 62 65 82 89 76 89 -3 0 -38 -35 -79 -78z"/>
<path d="M4245 5359 c-154 -66 -356 -153 -449 -193 l-169 -73 -99 -229 c-54
-126 -141 -328 -193 -450 -52 -121 -95 -226 -95 -234 0 -8 43 -113 95 -234 52
-122 139 -324 193 -450 l99 -228 149 -65 c597 -258 752 -323 765 -323 8 0 156
61 329 136 173 75 375 162 449 193 l133 57 47 110 c26 60 114 262 194 449 81
187 147 347 147 355 0 8 -66 168 -147 355 -80 187 -167 389 -193 449 l-47 109
-194 83 c-567 245 -706 304 -719 304 -8 0 -141 -55 -295 -121z m895 -1174 l0
-715 -145 0 -145 0 0 595 0 595 -295 0 -295 0 0 -595 0 -595 -145 0 -145 0 0
708 c0 390 3 712 7 715 3 4 267 7 585 7 l578 0 0 -715z"/>
</g>
</svg>
