<svg width="31" height="31" fill="none" xmlns="http://www.w3.org/2000/svg">
  <g clip-path="url(#a)">
    <path d="M15.5039 0h-.0078C6.9498 0 .0001 6.9517.0001 15.5a15.3837 15.3837 0 0 0 2.9507 9.0849l-1.9317 5.7583 5.9579-1.9046A15.3641 15.3641 0 0 0 15.5039 31C24.0502 31 31 24.0463 31 15.5 31 6.9537 24.0502 0 15.5039 0Z" fill="#4CAF50"/>
    <path d="M24.5226 21.888c-.374 1.0559-1.8581 1.9317-3.0419 2.1874-.8099.1725-1.8677.31-5.4289-1.1664-4.555-1.8871-7.4884-6.5158-7.717-6.8161-.219-.3003-1.8407-2.4509-1.8407-4.6752 0-2.2242 1.1296-3.3073 1.585-3.7723.3738-.3817.992-.556 1.5848-.556.1918 0 .3642.0096.5192.0174.4554.0194.684.0465.9843.7653.3739.901 1.2846 3.1252 1.3931 3.3538.1104.2286.2208.5386.0658.839-.1453.31-.2732.4475-.5018.711-.2286.2635-.4456.465-.6742.7479-.2093.2461-.4457.5096-.1822.9649.2635.4456 1.1742 1.9317 2.5149 3.1252 1.7302 1.5403 3.133 2.0324 3.6348 2.2416.3739.155.8195.1182 1.0927-.1724.3468-.3739.775-.9939 1.211-1.6042.31-.4379.7013-.4922 1.1121-.3372.4185.1453 2.633 1.24 3.0884 1.4667.4553.2286.7556.3371.866.529.1085.1918.1085 1.0927-.2654 2.1506Z" fill="#FAFAFA"/>
  </g>
  <defs>
    <clipPath id="a">
      <path fill="#fff" d="M0 0h31v31H0z"/>
    </clipPath>
  </defs>
</svg>
