<svg width="37" height="37" fill="none" xmlns="http://www.w3.org/2000/svg">
  <g clip-path="url(#a)">
    <path d="M37 18.5a18.4997 18.4997 0 0 1-22.1092 18.1445A18.5003 18.5003 0 0 1 .3555 22.1092 18.4999 18.4999 0 0 1 18.5 0 18.495 18.495 0 0 1 37 18.5Z" fill="url(#b)"/>
    <path d="M15.1081 26.9786c-.6011 0-.4933-.231-.7092-.8017l-1.7573-5.7961 10.915-6.8141 1.2795.3392-1.0637 2.8978-8.6643 10.1749Z" fill="#C8DAEA"/>
    <path d="M15.1084 26.9789a1.2035 1.2035 0 0 0 .9251-.4625c.4009-.3853 5.5498-5.3956 5.5498-5.3956l-3.1602-.7709-2.9291 1.8498-.3856 4.6251v.1541Z" fill="#A9C9DD"/>
    <path d="m15.4168 22.2616 7.4602 5.5038c.8478.4625 1.4645.2311 1.6804-.7862l3.0379-14.3066c.3084-1.2487-.4778-1.8037-1.2951-1.4337L8.4793 18.1147c-1.2178.4934-1.2026 1.1718-.2158 1.4645l4.5786 1.4337 10.5922-6.6755c.4933-.3083.9559-.1386.5859.2003l-8.6034 7.7239Z" fill="url(#c)"/>
  </g>
  <defs>
    <linearGradient id="b" x1="-105.339" y1="82.473" x2="-106.893" y2="78.847" gradientUnits="userSpaceOnUse">
      <stop stop-color="#37AEE2"/>
      <stop offset="1" stop-color="#1E96C8"/>
    </linearGradient>
    <linearGradient id="c" x1="19.877" y1="18.2271" x2="22.7789" y2="11.6466" gradientUnits="userSpaceOnUse">
      <stop stop-color="#EFF7FC"/>
      <stop offset="1" stop-color="#fff"/>
    </linearGradient>
    <clipPath id="a">
      <path fill="#fff" d="M0 0h37v37H0z"/>
    </clipPath>
  </defs>
</svg>
